<mxfile host="app.diagrams.net" agent="Mozilla/5.0 (Windows NT 10.0; Win64; x64) AppleWebKit/537.36 (KHTML, like Gecko) Chrome/131.0.0.0 Safari/537.36" version="25.0.3">
  <diagram name="Pagina-1" id="ktaXxPacxgZP-KeudJCP">
    <mxGraphModel dx="1434" dy="756" grid="1" gridSize="10" guides="1" tooltips="1" connect="1" arrows="1" fold="1" page="1" pageScale="1" pageWidth="827" pageHeight="1169" math="0" shadow="0">
      <root>
        <mxCell id="0" />
        <mxCell id="1" parent="0" />
        <mxCell id="-9enYQHF0VOgYdRqno-H-20" value="Region" style="points=[[0,0],[0.25,0],[0.5,0],[0.75,0],[1,0],[1,0.25],[1,0.5],[1,0.75],[1,1],[0.75,1],[0.5,1],[0.25,1],[0,1],[0,0.75],[0,0.5],[0,0.25]];outlineConnect=0;gradientColor=none;html=1;whiteSpace=wrap;fontSize=12;fontStyle=0;container=1;pointerEvents=0;collapsible=0;recursiveResize=0;shape=mxgraph.aws4.group;grIcon=mxgraph.aws4.group_region;strokeColor=#00A4A6;fillColor=none;verticalAlign=top;align=left;spacingLeft=30;fontColor=#147EBA;dashed=1;" parent="1" vertex="1">
          <mxGeometry x="10" y="10" width="810" height="540" as="geometry" />
        </mxCell>
        <mxCell id="9Gb6LifbftmSmuCiHd8n-2" value="Availability Zone" style="fillColor=none;strokeColor=#147EBA;dashed=1;verticalAlign=top;fontStyle=0;fontColor=#147EBA;whiteSpace=wrap;html=1;" parent="-9enYQHF0VOgYdRqno-H-20" vertex="1">
          <mxGeometry x="300" y="70" width="200" height="360" as="geometry" />
        </mxCell>
        <mxCell id="9Gb6LifbftmSmuCiHd8n-8" value="Subnet-DBS" style="points=[[0,0],[0.25,0],[0.5,0],[0.75,0],[1,0],[1,0.25],[1,0.5],[1,0.75],[1,1],[0.75,1],[0.5,1],[0.25,1],[0,1],[0,0.75],[0,0.5],[0,0.25]];outlineConnect=0;gradientColor=none;html=1;whiteSpace=wrap;fontSize=12;fontStyle=0;container=1;pointerEvents=0;collapsible=0;recursiveResize=0;shape=mxgraph.aws4.group;grIcon=mxgraph.aws4.group_security_group;grStroke=0;strokeColor=#00A4A6;fillColor=#E6F6F7;verticalAlign=top;align=left;spacingLeft=30;fontColor=#147EBA;dashed=0;" parent="-9enYQHF0VOgYdRqno-H-20" vertex="1">
          <mxGeometry x="310" y="330" width="180" height="90" as="geometry" />
        </mxCell>
        <mxCell id="9Gb6LifbftmSmuCiHd8n-9" value="Subnet-BE" style="points=[[0,0],[0.25,0],[0.5,0],[0.75,0],[1,0],[1,0.25],[1,0.5],[1,0.75],[1,1],[0.75,1],[0.5,1],[0.25,1],[0,1],[0,0.75],[0,0.5],[0,0.25]];outlineConnect=0;gradientColor=none;html=1;whiteSpace=wrap;fontSize=12;fontStyle=0;container=1;pointerEvents=0;collapsible=0;recursiveResize=0;shape=mxgraph.aws4.group;grIcon=mxgraph.aws4.group_security_group;grStroke=0;strokeColor=#00A4A6;fillColor=#E6F6F7;verticalAlign=top;align=left;spacingLeft=30;fontColor=#147EBA;dashed=0;" parent="-9enYQHF0VOgYdRqno-H-20" vertex="1">
          <mxGeometry x="310" y="210" width="180" height="100" as="geometry" />
        </mxCell>
        <mxCell id="9Gb6LifbftmSmuCiHd8n-12" value="Subnet-FE" style="points=[[0,0],[0.25,0],[0.5,0],[0.75,0],[1,0],[1,0.25],[1,0.5],[1,0.75],[1,1],[0.75,1],[0.5,1],[0.25,1],[0,1],[0,0.75],[0,0.5],[0,0.25]];outlineConnect=0;gradientColor=none;html=1;whiteSpace=wrap;fontSize=12;fontStyle=0;container=1;pointerEvents=0;collapsible=0;recursiveResize=0;shape=mxgraph.aws4.group;grIcon=mxgraph.aws4.group_security_group;grStroke=0;strokeColor=#00A4A6;fillColor=#E6F6F7;verticalAlign=top;align=left;spacingLeft=30;fontColor=#147EBA;dashed=0;" parent="-9enYQHF0VOgYdRqno-H-20" vertex="1">
          <mxGeometry x="310" y="100" width="180" height="90" as="geometry" />
        </mxCell>
        <mxCell id="u8LrWXwpnJPrBiu5wdxT-2" value="Availability Zone" style="fillColor=none;strokeColor=#147EBA;dashed=1;verticalAlign=top;fontStyle=0;fontColor=#147EBA;whiteSpace=wrap;html=1;" parent="-9enYQHF0VOgYdRqno-H-20" vertex="1">
          <mxGeometry x="540" y="70" width="200" height="360" as="geometry" />
        </mxCell>
        <mxCell id="u8LrWXwpnJPrBiu5wdxT-3" value="Subnet-DBS" style="points=[[0,0],[0.25,0],[0.5,0],[0.75,0],[1,0],[1,0.25],[1,0.5],[1,0.75],[1,1],[0.75,1],[0.5,1],[0.25,1],[0,1],[0,0.75],[0,0.5],[0,0.25]];outlineConnect=0;gradientColor=none;html=1;whiteSpace=wrap;fontSize=12;fontStyle=0;container=1;pointerEvents=0;collapsible=0;recursiveResize=0;shape=mxgraph.aws4.group;grIcon=mxgraph.aws4.group_security_group;grStroke=0;strokeColor=#00A4A6;fillColor=#E6F6F7;verticalAlign=top;align=left;spacingLeft=30;fontColor=#147EBA;dashed=0;" parent="-9enYQHF0VOgYdRqno-H-20" vertex="1">
          <mxGeometry x="550" y="330" width="180" height="90" as="geometry" />
        </mxCell>
        <mxCell id="u8LrWXwpnJPrBiu5wdxT-4" value="Subnet-BE" style="points=[[0,0],[0.25,0],[0.5,0],[0.75,0],[1,0],[1,0.25],[1,0.5],[1,0.75],[1,1],[0.75,1],[0.5,1],[0.25,1],[0,1],[0,0.75],[0,0.5],[0,0.25]];outlineConnect=0;gradientColor=none;html=1;whiteSpace=wrap;fontSize=12;fontStyle=0;container=1;pointerEvents=0;collapsible=0;recursiveResize=0;shape=mxgraph.aws4.group;grIcon=mxgraph.aws4.group_security_group;grStroke=0;strokeColor=#00A4A6;fillColor=#E6F6F7;verticalAlign=top;align=left;spacingLeft=30;fontColor=#147EBA;dashed=0;" parent="-9enYQHF0VOgYdRqno-H-20" vertex="1">
          <mxGeometry x="550" y="210" width="180" height="100" as="geometry" />
        </mxCell>
        <mxCell id="u8LrWXwpnJPrBiu5wdxT-5" value="Subnet-FE" style="points=[[0,0],[0.25,0],[0.5,0],[0.75,0],[1,0],[1,0.25],[1,0.5],[1,0.75],[1,1],[0.75,1],[0.5,1],[0.25,1],[0,1],[0,0.75],[0,0.5],[0,0.25]];outlineConnect=0;gradientColor=none;html=1;whiteSpace=wrap;fontSize=12;fontStyle=0;container=1;pointerEvents=0;collapsible=0;recursiveResize=0;shape=mxgraph.aws4.group;grIcon=mxgraph.aws4.group_security_group;grStroke=0;strokeColor=#00A4A6;fillColor=#E6F6F7;verticalAlign=top;align=left;spacingLeft=30;fontColor=#147EBA;dashed=0;" parent="-9enYQHF0VOgYdRqno-H-20" vertex="1">
          <mxGeometry x="550" y="100" width="180" height="90" as="geometry" />
        </mxCell>
        <mxCell id="u8LrWXwpnJPrBiu5wdxT-7" value="Availability Zone" style="fillColor=none;strokeColor=#147EBA;dashed=1;verticalAlign=top;fontStyle=0;fontColor=#147EBA;whiteSpace=wrap;html=1;" parent="-9enYQHF0VOgYdRqno-H-20" vertex="1">
          <mxGeometry x="60" y="70" width="200" height="360" as="geometry" />
        </mxCell>
        <mxCell id="u8LrWXwpnJPrBiu5wdxT-8" value="Subnet-DBS" style="points=[[0,0],[0.25,0],[0.5,0],[0.75,0],[1,0],[1,0.25],[1,0.5],[1,0.75],[1,1],[0.75,1],[0.5,1],[0.25,1],[0,1],[0,0.75],[0,0.5],[0,0.25]];outlineConnect=0;gradientColor=none;html=1;whiteSpace=wrap;fontSize=12;fontStyle=0;container=1;pointerEvents=0;collapsible=0;recursiveResize=0;shape=mxgraph.aws4.group;grIcon=mxgraph.aws4.group_security_group;grStroke=0;strokeColor=#00A4A6;fillColor=#E6F6F7;verticalAlign=top;align=left;spacingLeft=30;fontColor=#147EBA;dashed=0;" parent="-9enYQHF0VOgYdRqno-H-20" vertex="1">
          <mxGeometry x="70" y="330" width="180" height="90" as="geometry" />
        </mxCell>
        <mxCell id="u8LrWXwpnJPrBiu5wdxT-9" value="Subnet-BE" style="points=[[0,0],[0.25,0],[0.5,0],[0.75,0],[1,0],[1,0.25],[1,0.5],[1,0.75],[1,1],[0.75,1],[0.5,1],[0.25,1],[0,1],[0,0.75],[0,0.5],[0,0.25]];outlineConnect=0;gradientColor=none;html=1;whiteSpace=wrap;fontSize=12;fontStyle=0;container=1;pointerEvents=0;collapsible=0;recursiveResize=0;shape=mxgraph.aws4.group;grIcon=mxgraph.aws4.group_security_group;grStroke=0;strokeColor=#00A4A6;fillColor=#E6F6F7;verticalAlign=top;align=left;spacingLeft=30;fontColor=#147EBA;dashed=0;" parent="-9enYQHF0VOgYdRqno-H-20" vertex="1">
          <mxGeometry x="70" y="210" width="180" height="100" as="geometry" />
        </mxCell>
        <mxCell id="u8LrWXwpnJPrBiu5wdxT-10" value="Subnet-FE" style="points=[[0,0],[0.25,0],[0.5,0],[0.75,0],[1,0],[1,0.25],[1,0.5],[1,0.75],[1,1],[0.75,1],[0.5,1],[0.25,1],[0,1],[0,0.75],[0,0.5],[0,0.25]];outlineConnect=0;gradientColor=none;html=1;whiteSpace=wrap;fontSize=12;fontStyle=0;container=1;pointerEvents=0;collapsible=0;recursiveResize=0;shape=mxgraph.aws4.group;grIcon=mxgraph.aws4.group_security_group;grStroke=0;strokeColor=#00A4A6;fillColor=#E6F6F7;verticalAlign=top;align=left;spacingLeft=30;fontColor=#147EBA;dashed=0;" parent="-9enYQHF0VOgYdRqno-H-20" vertex="1">
          <mxGeometry x="70" y="100" width="180" height="90" as="geometry" />
        </mxCell>
        <mxCell id="u8LrWXwpnJPrBiu5wdxT-11" value="VPC" style="points=[[0,0],[0.25,0],[0.5,0],[0.75,0],[1,0],[1,0.25],[1,0.5],[1,0.75],[1,1],[0.75,1],[0.5,1],[0.25,1],[0,1],[0,0.75],[0,0.5],[0,0.25]];outlineConnect=0;gradientColor=none;html=1;whiteSpace=wrap;fontSize=12;fontStyle=0;container=1;pointerEvents=0;collapsible=0;recursiveResize=0;shape=mxgraph.aws4.group;grIcon=mxgraph.aws4.group_vpc2;strokeColor=#8C4FFF;fillColor=none;verticalAlign=top;align=left;spacingLeft=30;fontColor=#AAB7B8;dashed=0;" parent="-9enYQHF0VOgYdRqno-H-20" vertex="1">
          <mxGeometry x="20" y="30" width="760" height="480" as="geometry" />
        </mxCell>
        <mxCell id="u8LrWXwpnJPrBiu5wdxT-12" value="Application Server" style="sketch=0;points=[[0,0,0],[0.25,0,0],[0.5,0,0],[0.75,0,0],[1,0,0],[0,1,0],[0.25,1,0],[0.5,1,0],[0.75,1,0],[1,1,0],[0,0.25,0],[0,0.5,0],[0,0.75,0],[1,0.25,0],[1,0.5,0],[1,0.75,0]];outlineConnect=0;fontColor=#232F3E;fillColor=#ED7100;strokeColor=#ffffff;dashed=0;verticalLabelPosition=bottom;verticalAlign=top;align=center;html=1;fontSize=8;fontStyle=0;aspect=fixed;shape=mxgraph.aws4.resourceIcon;resIcon=mxgraph.aws4.ec2;whiteSpace=wrap;" parent="u8LrWXwpnJPrBiu5wdxT-11" vertex="1">
          <mxGeometry x="120" y="220" width="30" height="30" as="geometry" />
        </mxCell>
        <mxCell id="LcImffp7IpnXLBCG11FJ-3" style="edgeStyle=orthogonalEdgeStyle;rounded=0;orthogonalLoop=1;jettySize=auto;html=1;" edge="1" parent="u8LrWXwpnJPrBiu5wdxT-11" source="tb9fbKt0cQ2Bvuai_FGO-12" target="LcImffp7IpnXLBCG11FJ-1">
          <mxGeometry relative="1" as="geometry" />
        </mxCell>
        <mxCell id="tb9fbKt0cQ2Bvuai_FGO-12" value="" style="sketch=0;outlineConnect=0;fontColor=#232F3E;gradientColor=none;fillColor=#8C4FFF;strokeColor=none;dashed=0;verticalLabelPosition=bottom;verticalAlign=top;align=center;html=1;fontSize=12;fontStyle=0;aspect=fixed;pointerEvents=1;shape=mxgraph.aws4.network_load_balancer;" parent="u8LrWXwpnJPrBiu5wdxT-11" vertex="1">
          <mxGeometry x="240" y="170" width="30" height="30" as="geometry" />
        </mxCell>
        <mxCell id="LcImffp7IpnXLBCG11FJ-4" style="edgeStyle=orthogonalEdgeStyle;rounded=0;orthogonalLoop=1;jettySize=auto;html=1;" edge="1" parent="u8LrWXwpnJPrBiu5wdxT-11" source="-9enYQHF0VOgYdRqno-H-2" target="tb9fbKt0cQ2Bvuai_FGO-12">
          <mxGeometry relative="1" as="geometry" />
        </mxCell>
        <mxCell id="-9enYQHF0VOgYdRqno-H-2" value="Web/RevProxy Server" style="sketch=0;points=[[0,0,0],[0.25,0,0],[0.5,0,0],[0.75,0,0],[1,0,0],[0,1,0],[0.25,1,0],[0.5,1,0],[0.75,1,0],[1,1,0],[0,0.25,0],[0,0.5,0],[0,0.75,0],[1,0.25,0],[1,0.5,0],[1,0.75,0]];outlineConnect=0;fontColor=#232F3E;fillColor=#ED7100;strokeColor=#ffffff;dashed=0;verticalLabelPosition=bottom;verticalAlign=top;align=center;html=1;fontSize=8;fontStyle=0;aspect=fixed;shape=mxgraph.aws4.resourceIcon;resIcon=mxgraph.aws4.ec2;" parent="u8LrWXwpnJPrBiu5wdxT-11" vertex="1">
          <mxGeometry x="120" y="100" width="30" height="30" as="geometry" />
        </mxCell>
        <mxCell id="LcImffp7IpnXLBCG11FJ-5" style="edgeStyle=orthogonalEdgeStyle;rounded=0;orthogonalLoop=1;jettySize=auto;html=1;" edge="1" parent="u8LrWXwpnJPrBiu5wdxT-11" source="-9enYQHF0VOgYdRqno-H-4" target="tb9fbKt0cQ2Bvuai_FGO-12">
          <mxGeometry relative="1" as="geometry" />
        </mxCell>
        <mxCell id="-9enYQHF0VOgYdRqno-H-4" value="Web/RevProxy Server" style="sketch=0;points=[[0,0,0],[0.25,0,0],[0.5,0,0],[0.75,0,0],[1,0,0],[0,1,0],[0.25,1,0],[0.5,1,0],[0.75,1,0],[1,1,0],[0,0.25,0],[0,0.5,0],[0,0.75,0],[1,0.25,0],[1,0.5,0],[1,0.75,0]];outlineConnect=0;fontColor=#232F3E;fillColor=#ED7100;strokeColor=#ffffff;dashed=0;verticalLabelPosition=bottom;verticalAlign=top;align=center;html=1;fontSize=8;fontStyle=0;aspect=fixed;shape=mxgraph.aws4.resourceIcon;resIcon=mxgraph.aws4.ec2;" parent="u8LrWXwpnJPrBiu5wdxT-11" vertex="1">
          <mxGeometry x="365" y="100" width="30" height="30" as="geometry" />
        </mxCell>
        <mxCell id="-9enYQHF0VOgYdRqno-H-6" value="" style="edgeStyle=orthogonalEdgeStyle;rounded=0;orthogonalLoop=1;jettySize=auto;html=1;" parent="u8LrWXwpnJPrBiu5wdxT-11" source="-9enYQHF0VOgYdRqno-H-5" target="-9enYQHF0VOgYdRqno-H-4" edge="1">
          <mxGeometry relative="1" as="geometry" />
        </mxCell>
        <mxCell id="-9enYQHF0VOgYdRqno-H-5" value="" style="sketch=0;outlineConnect=0;fontColor=#232F3E;gradientColor=none;fillColor=#8C4FFF;strokeColor=none;dashed=0;verticalLabelPosition=bottom;verticalAlign=top;align=center;html=1;fontSize=12;fontStyle=0;aspect=fixed;pointerEvents=1;shape=mxgraph.aws4.network_load_balancer;" parent="u8LrWXwpnJPrBiu5wdxT-11" vertex="1">
          <mxGeometry x="240" y="10" width="30" height="30" as="geometry" />
        </mxCell>
        <mxCell id="-9enYQHF0VOgYdRqno-H-9" style="edgeStyle=orthogonalEdgeStyle;rounded=0;orthogonalLoop=1;jettySize=auto;html=1;entryX=0.5;entryY=0;entryDx=0;entryDy=0;entryPerimeter=0;" parent="u8LrWXwpnJPrBiu5wdxT-11" source="-9enYQHF0VOgYdRqno-H-5" target="-9enYQHF0VOgYdRqno-H-2" edge="1">
          <mxGeometry relative="1" as="geometry" />
        </mxCell>
        <mxCell id="-9enYQHF0VOgYdRqno-H-16" value="Shared Filesystem" style="sketch=0;points=[[0,0,0],[0.25,0,0],[0.5,0,0],[0.75,0,0],[1,0,0],[0,1,0],[0.25,1,0],[0.5,1,0],[0.75,1,0],[1,1,0],[0,0.25,0],[0,0.5,0],[0,0.75,0],[1,0.25,0],[1,0.5,0],[1,0.75,0]];outlineConnect=0;fontColor=#232F3E;fillColor=#7AA116;strokeColor=#ffffff;dashed=0;verticalLabelPosition=bottom;verticalAlign=top;align=center;html=1;fontSize=8;fontStyle=0;aspect=fixed;shape=mxgraph.aws4.resourceIcon;resIcon=mxgraph.aws4.elastic_file_system;" parent="u8LrWXwpnJPrBiu5wdxT-11" vertex="1">
          <mxGeometry x="250" y="420" width="30" height="30" as="geometry" />
        </mxCell>
        <mxCell id="-9enYQHF0VOgYdRqno-H-21" style="edgeStyle=orthogonalEdgeStyle;rounded=0;orthogonalLoop=1;jettySize=auto;html=1;shape=link;" parent="u8LrWXwpnJPrBiu5wdxT-11" source="-9enYQHF0VOgYdRqno-H-17" target="-9enYQHF0VOgYdRqno-H-19" edge="1">
          <mxGeometry relative="1" as="geometry" />
        </mxCell>
        <mxCell id="-9enYQHF0VOgYdRqno-H-17" value="DB instance write" style="sketch=0;points=[[0,0,0],[0.25,0,0],[0.5,0,0],[0.75,0,0],[1,0,0],[0,1,0],[0.25,1,0],[0.5,1,0],[0.75,1,0],[1,1,0],[0,0.25,0],[0,0.5,0],[0,0.75,0],[1,0.25,0],[1,0.5,0],[1,0.75,0]];outlineConnect=0;fontColor=#232F3E;fillColor=#C925D1;strokeColor=#ffffff;dashed=0;verticalLabelPosition=bottom;verticalAlign=top;align=center;html=1;fontSize=8;fontStyle=0;aspect=fixed;shape=mxgraph.aws4.resourceIcon;resIcon=mxgraph.aws4.database;" parent="u8LrWXwpnJPrBiu5wdxT-11" vertex="1">
          <mxGeometry x="120" y="340" width="30" height="30" as="geometry" />
        </mxCell>
        <mxCell id="-9enYQHF0VOgYdRqno-H-19" value="DB instance replica" style="sketch=0;points=[[0,0,0],[0.25,0,0],[0.5,0,0],[0.75,0,0],[1,0,0],[0,1,0],[0.25,1,0],[0.5,1,0],[0.75,1,0],[1,1,0],[0,0.25,0],[0,0.5,0],[0,0.75,0],[1,0.25,0],[1,0.5,0],[1,0.75,0]];outlineConnect=0;fontColor=#232F3E;fillColor=#C925D1;strokeColor=#ffffff;dashed=0;verticalLabelPosition=bottom;verticalAlign=top;align=center;html=1;fontSize=8;fontStyle=0;aspect=fixed;shape=mxgraph.aws4.resourceIcon;resIcon=mxgraph.aws4.database;" parent="u8LrWXwpnJPrBiu5wdxT-11" vertex="1">
          <mxGeometry x="359" y="340" width="30" height="30" as="geometry" />
        </mxCell>
        <mxCell id="LcImffp7IpnXLBCG11FJ-1" value="Application Server" style="sketch=0;points=[[0,0,0],[0.25,0,0],[0.5,0,0],[0.75,0,0],[1,0,0],[0,1,0],[0.25,1,0],[0.5,1,0],[0.75,1,0],[1,1,0],[0,0.25,0],[0,0.5,0],[0,0.75,0],[1,0.25,0],[1,0.5,0],[1,0.75,0]];outlineConnect=0;fontColor=#232F3E;fillColor=#ED7100;strokeColor=#ffffff;dashed=0;verticalLabelPosition=bottom;verticalAlign=top;align=center;html=1;fontSize=8;fontStyle=0;aspect=fixed;shape=mxgraph.aws4.resourceIcon;resIcon=mxgraph.aws4.ec2;whiteSpace=wrap;" vertex="1" parent="u8LrWXwpnJPrBiu5wdxT-11">
          <mxGeometry x="365" y="220" width="30" height="30" as="geometry" />
        </mxCell>
        <mxCell id="LcImffp7IpnXLBCG11FJ-2" style="edgeStyle=orthogonalEdgeStyle;rounded=0;orthogonalLoop=1;jettySize=auto;html=1;entryX=0.5;entryY=0;entryDx=0;entryDy=0;entryPerimeter=0;" edge="1" parent="u8LrWXwpnJPrBiu5wdxT-11" source="tb9fbKt0cQ2Bvuai_FGO-12" target="u8LrWXwpnJPrBiu5wdxT-12">
          <mxGeometry relative="1" as="geometry" />
        </mxCell>
      </root>
    </mxGraphModel>
  </diagram>
</mxfile>
